<svg width="800" height="800" viewBox="0 0 800 800" fill="none" xmlns="http://www.w3.org/2000/svg">
<g filter="url(#filter0_dd_1_3)">
<path d="M123.672 554.254C126.319 538.149 140.239 526.33 156.561 526.33H399.139H642.21C658.491 526.33 672.39 538.092 675.081 554.15L689.499 640.16C692.906 660.485 677.236 679 656.628 679H142.425C121.859 679 106.201 660.558 109.536 640.265L123.672 554.254Z" fill="url(#paint0_linear_1_3)"/>
</g>
<g filter="url(#filter1_dd_1_3)">
<path d="M123.438 439.837C126.049 423.693 139.987 411.828 156.341 411.828H642.219C658.501 411.828 672.4 423.591 675.091 439.648L689.506 525.659C692.913 545.983 677.243 564.498 656.635 564.498H142.431C121.9 564.498 106.251 546.115 109.529 525.847L123.438 439.837Z" fill="url(#paint1_linear_1_3)"/>
</g>
<g filter="url(#filter2_dd_1_3)">
<path d="M124.259 325.023C127.003 309.021 140.876 297.324 157.11 297.324H641.82C658.055 297.324 671.928 309.021 674.671 325.023L689.416 411.033C692.907 431.394 677.224 449.995 656.566 449.995H142.365C121.706 449.995 106.023 431.394 109.514 411.033L124.259 325.023Z" fill="url(#paint2_linear_1_3)"/>
</g>
<g filter="url(#filter3_dd_1_3)">
<path fill-rule="evenodd" clip-rule="evenodd" d="M242.932 65C224.524 65 209.602 79.9223 209.602 98.33V288.132C209.602 306.54 224.524 321.462 242.932 321.462H329.344L313.18 344.315C297.566 366.391 313.352 396.892 340.391 396.892H460.564C487.603 396.892 503.389 366.391 487.776 344.316L471.612 321.462H558.024C576.431 321.462 591.354 306.54 591.354 288.132V98.33C591.354 79.9223 576.431 65 558.024 65H242.932Z" fill="url(#paint3_linear_1_3)"/>
</g>
<defs>
<filter id="filter0_dd_1_3" x="42.4167" y="476.33" width="714.219" height="286.01" filterUnits="userSpaceOnUse" color-interpolation-filters="sRGB">
<feFlood flood-opacity="0" result="BackgroundImageFix"/>
<feColorMatrix in="SourceAlpha" type="matrix" values="0 0 0 0 0 0 0 0 0 0 0 0 0 0 0 0 0 0 127 0" result="hardAlpha"/>
<feOffset dy="3.33"/>
<feGaussianBlur stdDeviation="5"/>
<feComposite in2="hardAlpha" operator="out"/>
<feColorMatrix type="matrix" values="0 0 0 0 0 0 0 0 0 0 0 0 0 0 0 0 0 0 0.1 0"/>
<feBlend mode="normal" in2="BackgroundImageFix" result="effect1_dropShadow_1_3"/>
<feColorMatrix in="SourceAlpha" type="matrix" values="0 0 0 0 0 0 0 0 0 0 0 0 0 0 0 0 0 0 127 0" result="hardAlpha"/>
<feOffset dy="16.67"/>
<feGaussianBlur stdDeviation="33.335"/>
<feComposite in2="hardAlpha" operator="out"/>
<feColorMatrix type="matrix" values="0 0 0 0 0 0 0 0 0 0 0 0 0 0 0 0 0 0 0.2 0"/>
<feBlend mode="normal" in2="effect1_dropShadow_1_3" result="effect2_dropShadow_1_3"/>
<feBlend mode="normal" in="SourceGraphic" in2="effect2_dropShadow_1_3" result="shape"/>
</filter>
<filter id="filter1_dd_1_3" x="42.4234" y="361.828" width="714.22" height="286.01" filterUnits="userSpaceOnUse" color-interpolation-filters="sRGB">
<feFlood flood-opacity="0" result="BackgroundImageFix"/>
<feColorMatrix in="SourceAlpha" type="matrix" values="0 0 0 0 0 0 0 0 0 0 0 0 0 0 0 0 0 0 127 0" result="hardAlpha"/>
<feOffset dy="3.33"/>
<feGaussianBlur stdDeviation="5"/>
<feComposite in2="hardAlpha" operator="out"/>
<feColorMatrix type="matrix" values="0 0 0 0 0 0 0 0 0 0 0 0 0 0 0 0 0 0 0.1 0"/>
<feBlend mode="normal" in2="BackgroundImageFix" result="effect1_dropShadow_1_3"/>
<feColorMatrix in="SourceAlpha" type="matrix" values="0 0 0 0 0 0 0 0 0 0 0 0 0 0 0 0 0 0 127 0" result="hardAlpha"/>
<feOffset dy="16.67"/>
<feGaussianBlur stdDeviation="33.335"/>
<feComposite in2="hardAlpha" operator="out"/>
<feColorMatrix type="matrix" values="0 0 0 0 0 0 0 0 0 0 0 0 0 0 0 0 0 0 0.2 0"/>
<feBlend mode="normal" in2="effect1_dropShadow_1_3" result="effect2_dropShadow_1_3"/>
<feBlend mode="normal" in="SourceGraphic" in2="effect2_dropShadow_1_3" result="shape"/>
</filter>
<filter id="filter2_dd_1_3" x="42.3562" y="247.324" width="714.218" height="286.01" filterUnits="userSpaceOnUse" color-interpolation-filters="sRGB">
<feFlood flood-opacity="0" result="BackgroundImageFix"/>
<feColorMatrix in="SourceAlpha" type="matrix" values="0 0 0 0 0 0 0 0 0 0 0 0 0 0 0 0 0 0 127 0" result="hardAlpha"/>
<feOffset dy="3.33"/>
<feGaussianBlur stdDeviation="5"/>
<feComposite in2="hardAlpha" operator="out"/>
<feColorMatrix type="matrix" values="0 0 0 0 0 0 0 0 0 0 0 0 0 0 0 0 0 0 0.1 0"/>
<feBlend mode="normal" in2="BackgroundImageFix" result="effect1_dropShadow_1_3"/>
<feColorMatrix in="SourceAlpha" type="matrix" values="0 0 0 0 0 0 0 0 0 0 0 0 0 0 0 0 0 0 127 0" result="hardAlpha"/>
<feOffset dy="16.67"/>
<feGaussianBlur stdDeviation="33.335"/>
<feComposite in2="hardAlpha" operator="out"/>
<feColorMatrix type="matrix" values="0 0 0 0 0 0 0 0 0 0 0 0 0 0 0 0 0 0 0.2 0"/>
<feBlend mode="normal" in2="effect1_dropShadow_1_3" result="effect2_dropShadow_1_3"/>
<feBlend mode="normal" in="SourceGraphic" in2="effect2_dropShadow_1_3" result="shape"/>
</filter>
<filter id="filter3_dd_1_3" x="142.932" y="15" width="515.092" height="465.232" filterUnits="userSpaceOnUse" color-interpolation-filters="sRGB">
<feFlood flood-opacity="0" result="BackgroundImageFix"/>
<feColorMatrix in="SourceAlpha" type="matrix" values="0 0 0 0 0 0 0 0 0 0 0 0 0 0 0 0 0 0 127 0" result="hardAlpha"/>
<feOffset dy="3.33"/>
<feGaussianBlur stdDeviation="5"/>
<feComposite in2="hardAlpha" operator="out"/>
<feColorMatrix type="matrix" values="0 0 0 0 0 0 0 0 0 0 0 0 0 0 0 0 0 0 0.1 0"/>
<feBlend mode="normal" in2="BackgroundImageFix" result="effect1_dropShadow_1_3"/>
<feColorMatrix in="SourceAlpha" type="matrix" values="0 0 0 0 0 0 0 0 0 0 0 0 0 0 0 0 0 0 127 0" result="hardAlpha"/>
<feOffset dy="16.67"/>
<feGaussianBlur stdDeviation="33.335"/>
<feComposite in2="hardAlpha" operator="out"/>
<feColorMatrix type="matrix" values="0 0 0 0 0 0 0 0 0 0 0 0 0 0 0 0 0 0 0.2 0"/>
<feBlend mode="normal" in2="effect1_dropShadow_1_3" result="effect2_dropShadow_1_3"/>
<feBlend mode="normal" in="SourceGraphic" in2="effect2_dropShadow_1_3" result="shape"/>
</filter>
<linearGradient id="paint0_linear_1_3" x1="109.087" y1="602.665" x2="689.966" y2="602.665" gradientUnits="userSpaceOnUse">
<stop stop-color="#9CC6F4"/>
<stop offset="1" stop-color="#4187D4"/>
</linearGradient>
<linearGradient id="paint1_linear_1_3" x1="532.795" y1="564.498" x2="266.288" y2="411.8" gradientUnits="userSpaceOnUse">
<stop stop-color="#58B748"/>
<stop offset="1" stop-color="#A5EA99"/>
</linearGradient>
<linearGradient id="paint2_linear_1_3" x1="530.984" y1="449.995" x2="267.962" y2="297.298" gradientUnits="userSpaceOnUse">
<stop stop-color="#EE5354"/>
<stop offset="1" stop-color="#F98081"/>
</linearGradient>
<linearGradient id="paint3_linear_1_3" x1="602.269" y1="279.769" x2="198.726" y2="49.2969" gradientUnits="userSpaceOnUse">
<stop stop-color="#FFEF5C"/>
<stop offset="1" stop-color="#FFF7B1"/>
</linearGradient>
</defs>
</svg>
